<mxfile modified="2022-08-10T18:29:34.780Z" host="app.diagrams.net" agent="5.0 (Windows NT 10.0; Win64; x64) AppleWebKit/537.36 (KHTML, like Gecko) Chrome/104.0.0.0 Safari/537.36" etag="pobd5s5gabg_aF8k5mK3" version="20.2.3" type="github">
  <diagram id="f106602c-feb2-e66a-4537-3a34d633f6aa" name="Page-1">
    <mxGraphModel dx="1422" dy="729" grid="1" gridSize="10" guides="1" tooltips="1" connect="1" arrows="1" fold="1" page="1" pageScale="1" pageWidth="1169" pageHeight="827" background="none" math="0" shadow="0">
      <root>
        <mxCell id="0" />
        <mxCell id="1" parent="0" />
        <mxCell id="14" value="&lt;b&gt;Google &lt;/b&gt;Cloud Platform" style="fillColor=#F6F6F6;strokeColor=none;shadow=0;gradientColor=none;fontSize=14;align=left;spacing=10;fontColor=#717171;9E9E9E;verticalAlign=top;spacingTop=-4;fontStyle=0;spacingLeft=40;html=1;" parent="1" vertex="1">
          <mxGeometry x="440" y="110" width="400" height="331" as="geometry" />
        </mxCell>
        <mxCell id="15" value="" style="shape=mxgraph.gcp2.google_cloud_platform;fillColor=#F6F6F6;strokeColor=none;shadow=0;gradientColor=none;" parent="14" vertex="1">
          <mxGeometry width="23" height="20" relative="1" as="geometry">
            <mxPoint x="20" y="10" as="offset" />
          </mxGeometry>
        </mxCell>
        <mxCell id="WV1ngkLLrikhhhL2u5Pq-1014" style="edgeStyle=orthogonalEdgeStyle;rounded=0;orthogonalLoop=1;jettySize=auto;html=1;entryX=0;entryY=0.5;entryDx=0;entryDy=0;" edge="1" parent="14" source="WV1ngkLLrikhhhL2u5Pq-1001" target="WV1ngkLLrikhhhL2u5Pq-1010">
          <mxGeometry relative="1" as="geometry" />
        </mxCell>
        <mxCell id="WV1ngkLLrikhhhL2u5Pq-1001" value="" style="whiteSpace=wrap;html=1;" vertex="1" parent="14">
          <mxGeometry x="40" y="126" width="150" height="74" as="geometry" />
        </mxCell>
        <mxCell id="WV1ngkLLrikhhhL2u5Pq-1002" value="" style="shape=image;imageAspect=0;aspect=fixed;verticalLabelPosition=bottom;verticalAlign=top;image=data:image/png,iVBORw0KGgoAAAANSUhEUgAAAOEAAADhCAMAAAAJbSJIAAAAh1BMVEX///9ChfQzfvMqevP6+//B0/tTj/Xy9/72+v/S4fy70PstfPM8gvTm7f04gPT7/f/E1/uevPnc5v3O3fxFiPSDq/fu9P61zPrX4/zh6v19pve80fvp8P6Ir/hclPVwn/aqxPmQtPitx/pomvahv/kZdfN2ovZXkvVrnPYhd/MHcfPK2vyOs/hjxxI+AAAIP0lEQVR4nO2da3eiOhSGJShgieAFb63X0bHt2P//+45tV3vMGwIRAklYeb7Kmtm7CWHf0+s5HA6Hw+FwOBwOh8PhcFQiDaNUtwyNsT5vn3fU97P9drLWLYx6opc3Qiil3g1KE3IZ6pZILeGWki/lfqEkmOmWSiFjUO9bx/eJbrlUEc19Xr9PyD7ULZsShlmSr+BtGYMunDjDvB36q6K30C1fbaYF+n2tYl+3hDXZ0GINPXrSLWI9FlmJgrfjZqtbyDqkQamCnhc/6RazBmdSruBto9r7zRhJKejRZ92CVubE71FKCK82GeuWtCJLThea7J+uS+54pYGdDtWCX8Bg9fnDiDt/yFK3sJXgjplkH33/wuue2biIUYYruPtVYxrjIh40SloV7i28/yjw62vhIgaggz+4+zHdwauY/NEmaFWusBGTPfPzCjwqGmiSszq4SN6G/X0LvxPbYhpTWKMEIxYbWGPrDBs8SugGn5jjInJPmA0YbHTOPbGA4A23ymazhiX0R/wz+CbaddYcWA3pPueZFbyJ/rR1MWsAm5S85D0Ex61V23QD71i+j/uEp1HbYtYAN2n+lyBiFbTqk3iBTSrwcOGDQT/albIOcIZkgkDMGJZ6166UNVhLnKRfoO1qTYwfHCci9Bvgk0gGogdN4xkEX4kenMFi85aPoYBrmAgfjEDDV0v84DUckRfxo3Do+pZY3wM/uccvcN8nrJNlS8xtMGE4FiwM2KaJ1VmaXEIIyBHdAqnnDV7EHC/LcsCCteVFfIAhfC8Kzl1bYd9DL9Mtj3r24AZb5ehLcYAv4lW3QMpZwxfxrFsg9bABjy4eNa/Mi2h7eU0e4CNm9peBIWf2qPGt8fOlAS/Y2roMMZCEsiouLEfIGjX2RDLkYd0L+qpbHvVA3CrWVnAahcpg401gt8V6XMTZNiHK+MvqgIdpbp6qaSbvEnWi0sAqTVkNtRymz3JVlBU1hOIpHSULA7UKcm8aa5nqyHar1Y/XEJMArSuICV3lGmJYuHUNXxRvUk5DTFW1XvbNl/oq1hDec9K6d9H4Lr3q9i7Sptdwrf2TL9c1UV3DUH/c+yRsr1OiYU+/UbO4xA1abb0e+wfUU4e53MWxMsv7H2rIZsV1FZ30p0NVzCL4t58LfeC0nNb+ClU5gmHKSjz755cSbM2uGIOAIoRM19ickQf1j7gzTALSpJB/GslZHMTkaDnUt8VshRHfQyRQ8aBHehlgH0IVZoS9KUIVzd2nUNSOOcScNsZcYnOzqyGsIZjeb5IaGrxNI9AQTO+9pIYGJwRQQzC9L7JraG5Spw/vIRTCYXeNiHdzU4+gIebyj3IamlwUlxYn2M5SzhsVVZObQAqyQs3+HxkPnARGl8SxUe8EUojL91KHLM6Oj6as0n6DcP/bK7uG4AKPxqU8un7h+Tkr91gqw3nA0AHVvJM/y4rGAtWHzxC+tavhVWlQRkrDfasayjorKjWEMEbDlV9H1QHgxzUUdhGpQdaSV6kha5fRt0YVjGSiIqo13LZZvReqzsMYpyHmnFvRsNVdijnnVjRs96RZ6T9Lm64TnjR91uj+4vfSY8OHDa/hqWW79NMwbZK/2i3vG+lw0BwvXOQW0mugYT+MBPyUApobCv4BPGAIuOCIEJ7s8iHsNTaCFNpqj+zPl/I4DU2IucHSG/3iSJRcRJiY3IuC0cQD+7NkzDs2uHexJCIsm5lJzB3Y2y+M6qeylrJFuSc2M4Pd0EIMzj0tCrNrG1lD2eDc06YwQypVqZDzlzGJaWGWW9rZ8c3NPRVXKsiWmScGT+3DsVJsCa1c6sns3FNxxdCH1MciyUy+EqS46usiUTNIPQUtb6nIhXkc/KfZRD1W7s3K/bFx/W/95nzZBarI0AOGphkd1ZfLz0twpN53GbgBJvqnRX2ojU2ZVwU963wle/kdFfU0hPa89qe2Kc9koIZg0rQ//OPadldQ62UjUuUsdTSE/6D9MtGR6ii/cd15adMa4rTT1jVUntkv7pLVMXJA6saf6hpCHEbL2Ih1oHQVS7rV9cxROqrMRkHuCRssNY1p7U/HT6pYss44juCxZMLnAxgz+aMxIAFsz0BoWUIYute9CTzQuGVw4LoqeJSa3UhYBbBK4+5NM9tCsNTguG5FoA7D5D7JisBkSIOTDxWBzJLBWc6qdH9CK16bZG4uviJ9j6V7k5Ktvf9BmrOdVwc8ALyGceecQ65BR7dAkkxZCtZlyEYqbbkPKfX8+A6/wBDDYLCWqZAVkL5nhrv8wdyKGBa85EhYvwsFbfZEMDBdJrxoBi/tMrjfHAB/QdgDA7MEDC5MQy6FBTL/886+sNTohnMGnPUoMKchNWrPa8gPnDnkPwZLbVWY7STTjIYGjfjMNRA0qHO/c5g+t8pzwnGWefkkrFC3apOi9Lmh+iHelmtXpBSKQuOcRyDnZNtA/fJbK3DQnG1RNhw5w5+mOP2J2mJ1/4B7EJ1EvLnbvqzaS0n9AS6hVR/DL6CnEG1TLJazyWL7AW3Tw/2PXIkOedIkZh12BWE0rszKplvHf8Fg790+HGPJqpVLyFfk/Xrwa6wioxpufFABlm0mu++2lhVXVh3bEmNDPqBjiZJscljyUylsPEi/ifieLJrkzBEjJrcsFSNXQG3ySMcyJCtTzZ84LmYsUUEd253YnpfuU7PHPUhwLFlFYn95SfFp04kKoZknPm5o0Il62ZGwNYzsOpLVXpzyd6o/t/k7wTLPmRhKu1V4cT55cXKvZZJculb+tFhNLtT/skqTm3F6tCeT9gj99WFO4mB7XnavTtbhcDgcDofD4XA4HA5Hk/wHVP6M660ck+cAAAAASUVORK5CYII=;" vertex="1" parent="14">
          <mxGeometry x="42" y="131" width="64" height="64" as="geometry" />
        </mxCell>
        <mxCell id="WV1ngkLLrikhhhL2u5Pq-1005" value="" style="strokeColor=#dddddd;shadow=1;strokeWidth=1;rounded=1;absoluteArcSize=1;arcSize=2;" vertex="1" parent="14">
          <mxGeometry x="250" y="41" width="130" height="60" as="geometry" />
        </mxCell>
        <mxCell id="WV1ngkLLrikhhhL2u5Pq-1006" value="Cloud&#xa;Functions" style="editableCssRules=.*;fontColor=#999999;shape=image;verticalLabelPosition=middle;labelBackgroundColor=#ffffff;verticalAlign=middle;labelPosition=right;align=left;spacingLeft=20;part=1;points=[];imageAspect=0;image=data:image/svg+xml,PHN2ZyB4bWxucz0iaHR0cDovL3d3dy53My5vcmcvMjAwMC9zdmciIHhtbG5zOnY9Imh0dHBzOi8vdmVjdGEuaW8vbmFubyIgd2lkdGg9IjIwIiBoZWlnaHQ9IjE5Ljk4OTk5OTc3MTExODE2NCIgdmlld0JveD0iMCAwIDIwIDE5Ljk4OTk5OTc3MTExODE2NCI+JiN4YTsJPHN0eWxlIHR5cGU9InRleHQvY3NzIj4mI3hhOwkuc3Qwe2ZpbGw6IzQyODVmNDt9JiN4YTsJLnN0MXtmaWxsOiM2NjlkZjY7fSYjeGE7CS5zdDJ7ZmlsbDojYWVjYmZhO30mI3hhOwk8L3N0eWxlPiYjeGE7CTxwYXRoIGNsYXNzPSJzdDEiIGQ9Ik0zIDMuOTlMMCA2LjQydjcuMTNsMyAyLjQ0eiIvPiYjeGE7CTxwYXRoIGNsYXNzPSJzdDAiIGQ9Ik0zIDMuOTlsLTMgNCAzLTJ6bS0zIDhsMyA0di0yeiIvPiYjeGE7CTxwYXRoIGNsYXNzPSJzdDIiIGQ9Ik0wIDE1Ljk5bDQgNCAyLTItNi02em0uMDEtOEw1Ljk5IDJsLTItMkwwIDMuOTl6Ii8+JiN4YTsJPHBhdGggY2xhc3M9InN0MSIgZD0iTTE3IDE2bDMtMi40MlY2LjQ0TDE3IDR6Ii8+JiN4YTsJPHBhdGggY2xhc3M9InN0MCIgZD0iTTE3IDE2bDMtNC0zIDJ6bTMtOGwtMy00djJ6Ii8+JiN4YTsJPGcgY2xhc3M9InN0MiI+JiN4YTsJCTxwYXRoIGQ9Ik0yMCA0bC00LTQtMiAyIDYgNnptLS4wMSA4bC01Ljk4IDUuOTkgMiAyTDIwIDE2eiIvPiYjeGE7CQk8Y2lyY2xlIGN4PSI2IiBjeT0iOS45OSIgcj0iMSIvPiYjeGE7CQk8Y2lyY2xlIGN4PSIxMCIgY3k9IjkuOTkiIHI9IjEiLz4mI3hhOwkJPGNpcmNsZSBjeD0iMTMuOTkiIGN5PSI5Ljk5IiByPSIxIi8+JiN4YTsJPC9nPiYjeGE7PC9zdmc+;" vertex="1" parent="WV1ngkLLrikhhhL2u5Pq-1005">
          <mxGeometry width="30" height="24" relative="1" as="geometry">
            <mxPoint x="15" y="18" as="offset" />
          </mxGeometry>
        </mxCell>
        <mxCell id="WV1ngkLLrikhhhL2u5Pq-1012" style="edgeStyle=orthogonalEdgeStyle;rounded=0;orthogonalLoop=1;jettySize=auto;html=1;entryX=0;entryY=0.5;entryDx=0;entryDy=0;" edge="1" parent="14" source="WV1ngkLLrikhhhL2u5Pq-1007" target="WV1ngkLLrikhhhL2u5Pq-1005">
          <mxGeometry relative="1" as="geometry" />
        </mxCell>
        <mxCell id="WV1ngkLLrikhhhL2u5Pq-1013" style="edgeStyle=orthogonalEdgeStyle;rounded=0;orthogonalLoop=1;jettySize=auto;html=1;" edge="1" parent="14" source="WV1ngkLLrikhhhL2u5Pq-1007" target="WV1ngkLLrikhhhL2u5Pq-1008">
          <mxGeometry relative="1" as="geometry">
            <Array as="points">
              <mxPoint x="210" y="166" />
              <mxPoint x="210" y="166" />
            </Array>
          </mxGeometry>
        </mxCell>
        <mxCell id="WV1ngkLLrikhhhL2u5Pq-1007" value="API Gateway" style="text;html=1;resizable=0;autosize=1;align=center;verticalAlign=middle;points=[];fillColor=none;strokeColor=none;rounded=0;" vertex="1" parent="14">
          <mxGeometry x="100" y="150.5" width="90" height="30" as="geometry" />
        </mxCell>
        <mxCell id="WV1ngkLLrikhhhL2u5Pq-1008" value="" style="strokeColor=#dddddd;shadow=1;strokeWidth=1;rounded=1;absoluteArcSize=1;arcSize=2;" vertex="1" parent="14">
          <mxGeometry x="250" y="131" width="130" height="60" as="geometry" />
        </mxCell>
        <mxCell id="WV1ngkLLrikhhhL2u5Pq-1009" value="Cloud&#xa;Functions" style="editableCssRules=.*;fontColor=#999999;shape=image;verticalLabelPosition=middle;labelBackgroundColor=#ffffff;verticalAlign=middle;labelPosition=right;align=left;spacingLeft=20;part=1;points=[];imageAspect=0;image=data:image/svg+xml,PHN2ZyB4bWxucz0iaHR0cDovL3d3dy53My5vcmcvMjAwMC9zdmciIHhtbG5zOnY9Imh0dHBzOi8vdmVjdGEuaW8vbmFubyIgd2lkdGg9IjIwIiBoZWlnaHQ9IjE5Ljk4OTk5OTc3MTExODE2NCIgdmlld0JveD0iMCAwIDIwIDE5Ljk4OTk5OTc3MTExODE2NCI+JiN4YTsJPHN0eWxlIHR5cGU9InRleHQvY3NzIj4mI3hhOwkuc3Qwe2ZpbGw6IzQyODVmNDt9JiN4YTsJLnN0MXtmaWxsOiM2NjlkZjY7fSYjeGE7CS5zdDJ7ZmlsbDojYWVjYmZhO30mI3hhOwk8L3N0eWxlPiYjeGE7CTxwYXRoIGNsYXNzPSJzdDEiIGQ9Ik0zIDMuOTlMMCA2LjQydjcuMTNsMyAyLjQ0eiIvPiYjeGE7CTxwYXRoIGNsYXNzPSJzdDAiIGQ9Ik0zIDMuOTlsLTMgNCAzLTJ6bS0zIDhsMyA0di0yeiIvPiYjeGE7CTxwYXRoIGNsYXNzPSJzdDIiIGQ9Ik0wIDE1Ljk5bDQgNCAyLTItNi02em0uMDEtOEw1Ljk5IDJsLTItMkwwIDMuOTl6Ii8+JiN4YTsJPHBhdGggY2xhc3M9InN0MSIgZD0iTTE3IDE2bDMtMi40MlY2LjQ0TDE3IDR6Ii8+JiN4YTsJPHBhdGggY2xhc3M9InN0MCIgZD0iTTE3IDE2bDMtNC0zIDJ6bTMtOGwtMy00djJ6Ii8+JiN4YTsJPGcgY2xhc3M9InN0MiI+JiN4YTsJCTxwYXRoIGQ9Ik0yMCA0bC00LTQtMiAyIDYgNnptLS4wMSA4bC01Ljk4IDUuOTkgMiAyTDIwIDE2eiIvPiYjeGE7CQk8Y2lyY2xlIGN4PSI2IiBjeT0iOS45OSIgcj0iMSIvPiYjeGE7CQk8Y2lyY2xlIGN4PSIxMCIgY3k9IjkuOTkiIHI9IjEiLz4mI3hhOwkJPGNpcmNsZSBjeD0iMTMuOTkiIGN5PSI5Ljk5IiByPSIxIi8+JiN4YTsJPC9nPiYjeGE7PC9zdmc+;" vertex="1" parent="WV1ngkLLrikhhhL2u5Pq-1008">
          <mxGeometry width="30" height="24" relative="1" as="geometry">
            <mxPoint x="15" y="18" as="offset" />
          </mxGeometry>
        </mxCell>
        <mxCell id="WV1ngkLLrikhhhL2u5Pq-1010" value="" style="strokeColor=#dddddd;shadow=1;strokeWidth=1;rounded=1;absoluteArcSize=1;arcSize=2;" vertex="1" parent="14">
          <mxGeometry x="250" y="221" width="130" height="60" as="geometry" />
        </mxCell>
        <mxCell id="WV1ngkLLrikhhhL2u5Pq-1011" value="Cloud&#xa;Functions" style="editableCssRules=.*;fontColor=#999999;shape=image;verticalLabelPosition=middle;labelBackgroundColor=#ffffff;verticalAlign=middle;labelPosition=right;align=left;spacingLeft=20;part=1;points=[];imageAspect=0;image=data:image/svg+xml,PHN2ZyB4bWxucz0iaHR0cDovL3d3dy53My5vcmcvMjAwMC9zdmciIHhtbG5zOnY9Imh0dHBzOi8vdmVjdGEuaW8vbmFubyIgd2lkdGg9IjIwIiBoZWlnaHQ9IjE5Ljk4OTk5OTc3MTExODE2NCIgdmlld0JveD0iMCAwIDIwIDE5Ljk4OTk5OTc3MTExODE2NCI+JiN4YTsJPHN0eWxlIHR5cGU9InRleHQvY3NzIj4mI3hhOwkuc3Qwe2ZpbGw6IzQyODVmNDt9JiN4YTsJLnN0MXtmaWxsOiM2NjlkZjY7fSYjeGE7CS5zdDJ7ZmlsbDojYWVjYmZhO30mI3hhOwk8L3N0eWxlPiYjeGE7CTxwYXRoIGNsYXNzPSJzdDEiIGQ9Ik0zIDMuOTlMMCA2LjQydjcuMTNsMyAyLjQ0eiIvPiYjeGE7CTxwYXRoIGNsYXNzPSJzdDAiIGQ9Ik0zIDMuOTlsLTMgNCAzLTJ6bS0zIDhsMyA0di0yeiIvPiYjeGE7CTxwYXRoIGNsYXNzPSJzdDIiIGQ9Ik0wIDE1Ljk5bDQgNCAyLTItNi02em0uMDEtOEw1Ljk5IDJsLTItMkwwIDMuOTl6Ii8+JiN4YTsJPHBhdGggY2xhc3M9InN0MSIgZD0iTTE3IDE2bDMtMi40MlY2LjQ0TDE3IDR6Ii8+JiN4YTsJPHBhdGggY2xhc3M9InN0MCIgZD0iTTE3IDE2bDMtNC0zIDJ6bTMtOGwtMy00djJ6Ii8+JiN4YTsJPGcgY2xhc3M9InN0MiI+JiN4YTsJCTxwYXRoIGQ9Ik0yMCA0bC00LTQtMiAyIDYgNnptLS4wMSA4bC01Ljk4IDUuOTkgMiAyTDIwIDE2eiIvPiYjeGE7CQk8Y2lyY2xlIGN4PSI2IiBjeT0iOS45OSIgcj0iMSIvPiYjeGE7CQk8Y2lyY2xlIGN4PSIxMCIgY3k9IjkuOTkiIHI9IjEiLz4mI3hhOwkJPGNpcmNsZSBjeD0iMTMuOTkiIGN5PSI5Ljk5IiByPSIxIi8+JiN4YTsJPC9nPiYjeGE7PC9zdmc+;" vertex="1" parent="WV1ngkLLrikhhhL2u5Pq-1010">
          <mxGeometry width="30" height="24" relative="1" as="geometry">
            <mxPoint x="15" y="18" as="offset" />
          </mxGeometry>
        </mxCell>
        <mxCell id="997" value="Multiple&lt;br&gt;Clients&lt;br&gt;API Requests&lt;br&gt;" style="rounded=1;absoluteArcSize=1;arcSize=2;html=1;strokeColor=none;gradientColor=none;shadow=0;dashed=0;fontSize=12;fontColor=#9E9E9E;align=left;verticalAlign=top;spacing=10;spacingTop=-4;fillColor=#F1F8E9;" parent="1" vertex="1">
          <mxGeometry x="310" y="140" width="90" height="230" as="geometry" />
        </mxCell>
        <mxCell id="818" value="Architecture: Google Cloud API Gateway" style="fillColor=#4DA1F5;strokeColor=none;shadow=1;gradientColor=none;fontSize=14;align=left;spacingLeft=50;fontColor=#ffffff;html=1;" parent="1" vertex="1">
          <mxGeometry x="260" y="40" width="650" height="40" as="geometry" />
        </mxCell>
        <mxCell id="985" value="" style="strokeColor=#dddddd;fillColor=#ffffff;shadow=1;strokeWidth=1;rounded=1;absoluteArcSize=1;arcSize=2;labelPosition=center;verticalLabelPosition=middle;align=center;verticalAlign=bottom;spacingLeft=0;fontColor=#999999;fontSize=12;whiteSpace=wrap;spacingBottom=2;html=1;" parent="1" vertex="1">
          <mxGeometry x="320" y="200" width="70" height="70" as="geometry" />
        </mxCell>
        <mxCell id="986" value="" style="dashed=0;connectable=0;html=1;fillColor=#757575;strokeColor=none;shape=mxgraph.gcp2.mobile_devices;part=1;" parent="985" vertex="1">
          <mxGeometry x="0.5" width="50" height="36.5" relative="1" as="geometry">
            <mxPoint x="-25" y="16.75" as="offset" />
          </mxGeometry>
        </mxCell>
        <mxCell id="998" style="edgeStyle=elbowEdgeStyle;rounded=0;elbow=vertical;html=1;labelBackgroundColor=none;startFill=1;startSize=4;endArrow=blockThin;endFill=1;endSize=4;jettySize=auto;orthogonalLoop=1;strokeColor=#4284F3;strokeWidth=2;fontSize=12;fontColor=#000000;align=left;dashed=0;entryX=0;entryY=0.5;entryDx=0;entryDy=0;" parent="1" source="997" target="WV1ngkLLrikhhhL2u5Pq-1001" edge="1">
          <mxGeometry relative="1" as="geometry">
            <mxPoint x="440" y="325" as="targetPoint" />
            <Array as="points" />
          </mxGeometry>
        </mxCell>
        <mxCell id="987" value="" style="strokeColor=#dddddd;fillColor=#ffffff;shadow=1;strokeWidth=1;rounded=1;absoluteArcSize=1;arcSize=2;labelPosition=center;verticalLabelPosition=middle;align=center;verticalAlign=bottom;spacingLeft=0;fontColor=#999999;fontSize=12;whiteSpace=wrap;spacingBottom=2;html=1;" parent="1" vertex="1">
          <mxGeometry x="320" y="289.5" width="70" height="70" as="geometry" />
        </mxCell>
        <mxCell id="988" value="" style="dashed=0;connectable=0;html=1;fillColor=#757575;strokeColor=none;shape=mxgraph.gcp2.laptop;part=1;" parent="987" vertex="1">
          <mxGeometry x="0.5" width="50" height="33" relative="1" as="geometry">
            <mxPoint x="-25" y="18.5" as="offset" />
          </mxGeometry>
        </mxCell>
      </root>
    </mxGraphModel>
  </diagram>
</mxfile>
